<?xml version="1.0" encoding="UTF-8" standalone="no"?>
<!DOCTYPE svg PUBLIC "-//W3C//DTD SVG 1.1//EN" "http://www.w3.org/Graphics/SVG/1.1/DTD/svg11.dtd">
<svg width="100%" height="100%" viewBox="0 0 600 400" version="1.1" xmlns="http://www.w3.org/2000/svg" xmlns:xlink="http://www.w3.org/1999/xlink" xml:space="preserve" xmlns:serif="http://www.serif.com/" style="fill-rule:evenodd;clip-rule:evenodd;stroke-linejoin:round;stroke-miterlimit:2;">
    <g id="Layer1">
        <rect x="-1028.23" y="-248.288" width="1712.17" height="4055.19" style="fill:#3d4345;"/>
        <rect x="-13.101" y="-13.059" width="626.202" height="426.201" style="fill:url(#_Radial1);"/>
        <g id="CorelEMF" serif:id="CorelEMF">
        </g>
        <g id="CorelEMF1" serif:id="CorelEMF">
        </g>
        <path d="M164.359,137.019C161.34,143.812 163.982,150.982 170.397,154.001C176.813,157.02 183.983,154.379 187.002,147.586C188.511,144.19 188.511,139.661 187.002,135.887L180.586,138.152C181.341,140.416 181.341,142.68 180.586,144.19C179.454,146.831 176.435,147.963 173.416,146.454C170.775,145.322 169.265,142.303 170.775,139.661C171.529,138.152 173.416,136.642 175.681,135.887L172.662,129.472C169.265,130.604 165.869,133.623 164.359,137.019ZM434.561,184.569C431.164,184.569 428.523,187.21 428.523,190.607C428.523,194.003 431.164,196.645 434.561,196.645C437.957,196.645 440.599,194.003 440.599,190.607C440.599,187.21 437.957,184.569 434.561,184.569ZM432.297,169.851C430.032,169.851 428.523,171.361 428.523,173.625C428.523,175.889 430.032,177.776 432.297,177.776C434.561,177.776 436.448,175.889 436.448,173.625C436.448,171.361 434.561,169.851 432.297,169.851ZM434.938,203.438C432.674,203.438 430.787,204.947 430.787,207.211C430.787,209.476 432.674,211.363 434.938,211.363C436.825,211.363 438.712,209.476 438.712,207.211C438.712,204.947 436.825,203.438 434.938,203.438ZM163.227,184.569C166.623,184.569 169.265,187.21 169.265,190.607C169.265,194.003 166.623,196.645 163.227,196.645C159.831,196.645 157.189,194.003 157.189,190.607C157.189,187.21 159.831,184.569 163.227,184.569ZM165.491,169.851C167.378,169.851 169.265,171.361 169.265,173.625C169.265,175.889 167.378,177.776 165.491,177.776C163.227,177.776 161.34,175.889 161.34,173.625C161.34,171.361 163.227,169.851 165.491,169.851ZM162.85,203.438C165.114,203.438 167.001,204.947 167.001,207.211C167.001,209.476 165.114,211.363 162.85,211.363C160.585,211.363 159.076,209.476 159.076,207.211C159.076,204.947 160.585,203.438 162.85,203.438ZM180.209,232.496C178.322,226.835 174.171,223.439 169.642,224.948C161.718,227.212 167.001,238.534 163.982,239.666C163.227,239.666 162.472,239.288 162.095,238.156C161.718,235.515 162.095,230.986 163.227,227.967L156.812,226.835C155.302,230.609 155.302,235.515 156.434,239.666C157.944,244.949 161.34,248.723 166.623,247.213C174.926,244.949 169.642,233.25 172.662,232.496C173.416,232.496 173.794,232.873 174.171,233.628C174.548,235.515 174.171,239.666 173.416,242.307L180.209,243.44C180.964,240.421 180.964,236.269 180.209,232.496ZM171.152,259.289L187.002,252.119L183.605,244.949L161.718,254.761L169.265,271.365L175.303,268.724L171.152,259.289ZM199.455,272.12C194.927,265.705 187.379,264.195 181.719,268.346C176.058,272.498 174.926,280.045 179.454,286.461C183.605,292.876 191.153,294.008 197.191,289.857C202.852,286.083 203.984,278.536 199.455,272.12ZM194.172,275.894C195.681,278.158 194.927,281.555 192.285,283.442C189.643,285.328 186.247,284.951 184.738,282.687C183.228,280.423 183.605,277.026 186.624,275.139C189.266,273.252 192.285,273.63 194.172,275.894ZM211.909,302.31L208.135,306.461C207.003,306.084 205.871,305.329 205.116,304.952C202.852,303.065 202.852,299.669 204.739,297.027C207.003,294.763 210.399,294.385 212.663,296.272C214.173,297.404 215.305,300.046 215.305,301.933L222.475,300.801C222.098,297.404 219.834,293.631 216.815,291.366C211.154,286.083 203.229,286.461 198.7,291.744C194.172,297.027 194.549,304.575 200.587,309.481C202.852,311.745 207.38,313.632 210.399,314.009L216.815,306.839L211.909,302.31ZM230.023,325.708L229.268,329.481L236.816,333.633L240.212,307.971L233.042,303.82L212.286,319.67L219.456,323.821L222.098,321.179L230.023,325.708ZM231.155,320.047L227.004,317.405L232.664,312.5L231.155,320.047ZM263.987,343.067L271.912,320.424L265.119,318.16L260.968,329.859L256.062,314.764L249.646,312.877L241.721,335.519L248.892,337.784L252.665,326.462L257.571,340.803L263.987,343.067ZM287.007,349.86L300.592,319.292L294.177,318.915L280.591,349.105L287.007,349.86ZM330.782,325.33L329.65,318.915L308.14,323.066L309.272,329.104L316.065,327.972L319.084,345.331L327.009,344.199L323.99,326.462L330.782,325.33ZM351.161,333.633L353.425,336.652L361.727,333.633L344.745,314.009L336.82,316.651L334.933,342.69L342.858,340.048L342.858,336.652L351.161,333.633ZM347.764,328.727L342.858,330.614L342.858,323.066L347.764,328.727ZM372.671,312.5L375.69,317.405C374.935,318.16 373.803,318.915 373.426,319.67C370.407,321.179 367.388,320.047 365.878,317.405C363.991,314.386 364.746,311.367 367.388,309.481C369.275,308.726 371.916,308.348 373.803,308.726L374.935,301.933C371.916,301.178 367.388,301.933 364.369,303.82C357.576,307.971 354.934,315.141 358.708,321.179C362.105,327.595 369.652,329.481 376.067,325.708C379.087,323.821 382.106,320.424 383.615,317.405L378.709,309.103L372.671,312.5ZM400.974,296.65L388.144,284.574L382.86,290.612L400.22,307.216L412.673,294.008L407.767,289.48L400.974,296.65ZM420.975,282.687L401.352,268.724L396.823,275.139L416.447,289.102L420.975,282.687ZM436.07,255.893L414.937,244.949L411.541,251.365L422.485,257.025L407.012,259.667L403.993,265.705L425.504,276.649L428.9,270.233L417.956,264.573L433.051,261.931L436.07,255.893ZM427.013,224.193L421.353,222.684L415.692,242.307L438.712,248.723L444.373,228.722L438.712,227.212L435.316,239.666L432.297,238.534L435.316,227.967L429.655,226.08L426.636,237.024L423.617,236.269L427.013,224.193ZM179.077,112.113C174.548,118.528 175.303,126.075 181.341,130.227C187.002,134.378 194.549,132.868 199.078,126.453C203.606,120.415 202.474,112.867 196.436,108.716C190.776,104.565 183.228,106.075 179.077,112.113ZM184.36,115.886C185.87,113.622 189.266,113.245 191.908,115.132C194.549,117.018 195.304,120.415 193.795,122.679C191.908,124.943 188.511,125.321 185.87,123.434C183.228,121.547 182.851,118.151 184.36,115.886ZM229.268,95.508L213.418,77.394L207.003,83.055L211.154,95.885L199.078,89.847L192.662,95.131L208.512,113.622L213.796,109.094L205.116,98.904L215.305,104.565L219.079,101.169L215.305,90.225L223.985,100.036L229.268,95.508ZM221.72,72.111L232.664,93.621L239.835,89.847L236.816,84.564L239.835,83.055C245.495,80.036 247.005,75.507 244.363,70.224C242.099,65.318 237.193,64.186 231.91,66.827L221.72,72.111ZM231.532,73.998L234.174,72.488C235.683,71.733 237.193,72.111 237.948,73.998C238.702,75.507 238.325,77.017 236.816,77.771L234.174,78.903L231.532,73.998ZM267.006,75.507L269.27,78.526L277.572,76.262L261.345,55.506L253.42,57.77L250.401,83.809L258.326,81.545L258.326,78.149L267.006,75.507ZM263.609,70.601L258.703,72.111L259.458,64.563L263.609,70.601ZM302.856,74.375L300.97,50.223L293.799,50.978L294.554,63.054L284.365,51.355L277.572,52.11L279.459,75.884L286.629,75.507L285.874,63.431L296.064,74.752L302.856,74.375ZM322.48,69.469L333.047,53.997L325.122,52.864L319.461,61.544L315.687,51.732L307.762,50.6L314.555,68.337L313.423,75.884L321.348,76.639L322.48,69.469ZM365.124,93.621L376.067,72.111L369.652,68.714L363.991,79.658L360.972,64.186L355.312,61.167L343.99,82.677L350.783,86.074L356.067,75.13L359.086,90.225L365.124,93.621ZM383.238,103.433L382.106,106.829L388.521,112.49L396.823,87.96L390.408,82.3L367.01,93.998L373.426,99.282L376.445,97.772L383.238,103.433ZM385.502,97.772L381.728,94.753L388.144,90.979L385.502,97.772ZM405.88,135.887L425.504,121.924L420.975,115.132L407.39,118.151L414.56,106.452L409.654,99.659L390.03,113.622L394.182,119.283L405.125,111.358L398.333,121.17L401.352,125.321L412.673,122.679L402.106,130.227L405.88,135.887ZM432.674,150.605L438.335,147.963L429.655,129.472L407.767,139.284L416.447,158.152L422.107,155.888L416.824,144.19L419.466,143.057L423.994,153.247L429.655,150.605L424.749,140.416L427.768,139.284L432.674,150.605Z" style="fill:#2c2822;fill-rule:nonzero;"/>
        <g>
            <g id="CorelEMF2" serif:id="CorelEMF">
            </g>
        </g>
        <ellipse cx="300.02" cy="210.738" rx="66.734" ry="81.657" style="fill:#fff;"/>
        <path d="M347.076,266.715C348.684,260.901 346.663,255.886 345.537,259.026C343.425,264.91 340.928,270.31 337.808,274.801C333.898,280.427 328.289,284.424 322.426,287.641C320.202,288.861 317.934,289.941 315.68,290.861C326.912,290.24 334.656,286.244 339.8,280.501C340.079,280.19 340.35,279.873 340.615,279.552C340.627,279.537 340.639,279.522 340.651,279.508C343.741,275.733 345.802,271.32 347.076,266.715Z" style="fill:#006bc1;"/>
        <path d="M254.361,258.625C253.291,255.608 251.611,264.34 254.603,271.462C255.808,274.332 257.382,277.055 259.39,279.508C259.402,279.522 259.414,279.537 259.426,279.551C259.69,279.873 259.961,280.189 260.24,280.501C265.385,286.244 273.129,290.24 284.361,290.861C282.107,289.941 279.839,288.861 277.615,287.641C271.752,284.424 266.143,280.427 262.233,274.801C259.042,270.208 256.503,264.665 254.361,258.625Z" style="fill:#006bc1;"/>
        <path d="M358.584,233.144C358.214,227.621 355.079,223.009 354.296,226.294C353.157,231.072 352.036,235.995 350.827,240.876C353.033,250.793 352.967,264.949 346.924,276.185C354.962,270.463 358.058,259.576 358.739,247.265C358.992,242.701 358.905,237.938 358.584,233.144Z" style="fill:#0a775d;"/>
        <path d="M245.727,226.221C244.95,222.962 241.74,228.333 241.39,234.202C241.125,238.638 241.067,243.037 241.301,247.265C241.983,259.576 245.079,270.463 253.117,276.185C247.074,264.947 247.008,250.792 249.214,240.876C247.999,235.969 246.872,231.021 245.727,226.221Z" style="fill:#0a775d;"/>
        <path d="M241.259,208.723C241.537,207.209 233.866,212.94 231.377,223.222C230.508,226.814 229.948,230.314 229.741,233.674C229.101,244.03 231.866,253.02 239.447,259.061C238.627,255.416 238.134,251.513 237.909,247.453C237.22,235.008 239.008,221.101 241.201,209.045C241.21,208.935 241.23,208.828 241.259,208.723Z" style="fill:#247d31;"/>
        <path d="M367.944,220.476C365.415,211.494 357.703,202.831 358.781,208.723C358.811,208.828 358.831,208.935 358.84,209.045C361.033,221.101 362.821,235.008 362.132,247.453C361.907,251.513 361.414,255.416 360.594,259.061C368.174,253.02 370.94,244.03 370.3,233.674C370.04,229.463 369.227,225.033 367.944,220.476Z" style="fill:#247d31;"/>
        <path d="M301.795,128.304C301.322,127.822 300.673,127.553 299.997,127.56C299.321,127.567 298.678,127.85 298.215,128.342C297.961,128.614 297.737,128.851 297.549,129.045C285.628,141.368 250.544,162.493 232.134,185.677C221.114,199.554 216.147,214.186 226.96,227.999C229.209,213.855 236.653,197.857 246.761,183.032C246.799,182.968 246.841,182.907 246.887,182.849C249.597,178.885 252.495,175.009 255.535,171.276C266.633,157.647 283.055,150.251 292.957,142.207C294.73,140.767 296.204,139.235 297.54,137.772C297.895,137.382 298.254,136.95 298.611,136.49C298.651,136.43 298.695,136.373 298.744,136.318C300,134.674 301.217,132.719 302.141,131.154C302.683,130.235 302.541,129.067 301.795,128.305C301.795,128.304 301.795,128.304 301.795,128.304Z" style="fill:#7f8f1f;"/>
        <path d="M308.652,134.596C307.897,133.954 306.901,133.668 305.92,133.812C304.939,133.956 304.067,134.516 303.529,135.348C303.529,135.349 303.529,135.349 303.529,135.349C302.669,136.677 302.841,138.423 303.943,139.558C306.851,142.526 310.852,145.264 315.316,148.163C324.71,154.263 336.116,160.973 344.506,171.276C347.545,175.009 350.444,178.885 353.154,182.849C353.2,182.907 353.242,182.968 353.28,183.032C363.389,197.857 370.833,213.857 373.08,227.999C383.142,215.145 379.537,201.573 370.107,188.572C356.041,169.178 329.261,151.025 312.754,137.975C311.737,137.17 310.108,135.819 308.652,134.596Z" style="fill:#7f8f1f;"/>
        <path d="M307.781,120.867C307.179,120.414 306.418,120.226 305.675,120.346C304.931,120.465 304.267,120.883 303.838,121.502C303.748,121.636 303.654,121.769 303.558,121.901C302.791,122.974 302.888,124.44 303.789,125.403C305.551,127.172 308.249,129.839 309.334,130.775C324.764,144.078 356.895,164.568 372.857,186.577C373.755,187.814 374.601,189.056 375.392,190.304C377.583,185.658 378.425,181.365 378.151,177.36C377.661,170.205 373.63,164.017 367.72,158.404C367.159,157.872 366.582,157.345 365.987,156.821C365.954,156.794 365.922,156.765 365.891,156.736C350.006,142.796 323.141,132.416 307.781,120.867C307.781,120.867 307.781,120.867 307.781,120.867Z" style="fill:#cb952f;"/>
        <path d="M302.096,115.43C301.732,114.988 301.201,114.718 300.63,114.683C300.058,114.647 299.498,114.851 299.082,115.244C295.584,118.493 291.796,121.232 290.489,122.159C274.927,133.2 249.45,143.308 234.164,156.722C234.124,156.761 234.083,156.798 234.039,156.832C233.227,157.548 232.442,158.276 231.69,159.013C226.97,163.638 223.547,168.657 222.327,174.286C221.273,179.146 221.887,184.442 224.647,190.3C226.084,188.04 227.703,185.793 229.473,183.564C247.953,160.292 283.14,139.052 295.107,126.682C295.716,126.052 300.369,120.432 302.25,117.625C302.67,116.936 302.606,116.056 302.092,115.434C302.097,115.43 302.097,115.43 302.096,115.43Z" style="fill:#cb952f;"/>
        <path d="M305.588,109.911C304.942,109.527 304.111,109.694 303.663,110.296C303.663,110.296 303.663,110.296 303.663,110.296C303.304,110.779 303.304,111.439 303.663,111.921C305.263,114.056 307.096,116.1 309.823,118.151C324.602,129.264 349.95,139.339 366.097,152.47C367.841,143.194 361.346,136.581 352.025,131.056C342.26,125.269 329.363,120.735 318.361,116.081C313.638,114.083 309.258,112.056 305.588,109.911Z" style="fill:#be6333;"/>
        <path d="M301.18,107.001C300.996,106.86 300.74,106.86 300.555,107C298.431,108.6 296.103,110.021 294.749,110.783C282.833,117.487 263.552,122.877 249.69,130.484C249.627,130.524 249.562,130.56 249.494,130.591C248.031,131.399 246.629,132.233 245.303,133.095C237.515,138.164 232.424,144.241 233.947,152.469C249.496,139.829 273.549,130.012 288.523,119.388C290.054,118.302 299.192,111.383 301.357,107.77C301.49,107.505 301.415,107.182 301.179,107.003C301.18,107.001 301.18,107.001 301.18,107.001Z" style="fill:#be6333;"/>
        <path d="M299.024,103.945C299.111,103.877 299.145,103.761 299.108,103.657C299.071,103.552 298.971,103.484 298.861,103.486C288.159,103.795 273.665,108.277 263.224,114.707C257.922,117.972 253.631,121.693 251.618,125.67C265.096,119.025 282.165,113.965 293.082,107.822C294.447,107.055 296.934,105.571 299.024,103.945C299.024,103.945 299.024,103.945 299.024,103.945Z" style="fill:#e02828;"/>
        <path d="M304.466,103.699C304.306,103.683 304.149,103.747 304.045,103.87C304.045,103.87 304.045,103.87 304.044,103.871C303.905,104.035 303.841,104.249 303.867,104.462C303.893,104.675 304.007,104.868 304.181,104.993C308.197,107.836 313.656,110.401 319.685,112.951C328.803,116.808 339.2,120.598 348.096,125.06C345.968,121.313 341.847,117.805 336.817,114.707C327.41,108.914 314.714,104.702 304.466,103.699Z" style="fill:#e02828;"/>
        <path d="M300.153,100.072L300.02,100.071C288.707,100.071 272.786,104.828 261.442,111.814C253.911,116.452 248.442,122.138 247.239,127.966C245.92,128.705 244.654,129.464 243.45,130.248C233.77,136.547 228.065,144.378 231.04,154.96C230.447,155.496 229.87,156.039 229.311,156.586C224.078,161.715 220.359,167.325 219.006,173.566C217.692,179.628 218.58,186.311 222.594,193.77C215.5,206.735 214.852,220.02 226.411,232.595C226.388,232.888 226.367,233.177 226.35,233.465C225.544,246.51 229.731,257.539 240.877,264.163C243.753,272.576 248.849,279.068 257.09,282.055C257.292,282.295 257.499,282.533 257.709,282.768C264.833,290.721 276.473,295.833 294.777,293.954C296.597,294.272 298.333,294.44 299.946,294.445L300.02,294.445C301.654,294.445 303.417,294.276 305.264,293.954C323.567,295.833 335.208,290.721 342.331,282.768C342.542,282.533 342.749,282.295 342.951,282.055C351.193,279.068 356.289,272.576 359.164,264.163C370.31,257.539 374.497,246.51 373.691,233.465C373.673,233.177 373.653,232.888 373.63,232.595C379.083,226.661 381.783,220.557 382.404,214.418C383.098,207.559 381.171,200.622 377.442,193.778C380.689,187.746 381.889,182.222 381.54,177.128C380.995,169.159 376.643,162.192 370.06,155.94C369.714,155.612 369.361,155.285 369.001,154.959C372.288,143.281 365.108,134.86 353.757,128.133C353.409,127.927 353.057,127.722 352.702,127.519C351.318,121.847 345.937,116.333 338.599,111.814C328.403,105.535 314.509,101.057 303.586,100.215C303.536,100.209 303.485,100.205 303.435,100.203C302.307,100.12 301.21,100.075 300.153,100.072ZM299.946,140.175C298.532,141.72 296.967,143.327 295.099,144.844C285.341,152.771 269.106,159.991 258.17,173.422C255.24,177.019 252.442,180.752 249.82,184.567C248.695,189.946 246.524,198.809 244.637,209.056C250.923,228.724 253.828,256.751 265.023,272.862C268.63,278.052 273.841,281.695 279.25,284.663C284.54,287.565 290.088,289.65 295,290.551C295.084,290.56 295.166,290.575 295.246,290.596C296.927,290.892 298.531,291.047 300.02,291.047C301.51,291.047 303.114,290.892 304.794,290.596C304.875,290.575 304.957,290.56 305.041,290.551C309.953,289.65 315.501,287.565 320.791,284.663C326.2,281.695 331.411,278.052 335.018,272.862C346.212,256.751 349.118,228.724 355.404,209.056C353.517,198.81 351.346,189.945 350.22,184.567C347.599,180.752 344.8,177.019 341.871,173.422C333.719,163.41 322.594,156.941 313.466,151.012C307.923,147.413 303.1,143.982 299.946,140.175ZM278.384,288.057C278.325,288.153 278.229,288.224 278.114,288.25C277.005,288.494 275.785,288.817 274.483,289.242C276.102,289.714 277.824,290.096 279.654,290.377C279.676,290.212 279.793,290.072 279.958,290.025C280.499,289.872 281.02,289.737 281.516,289.618C280.468,289.13 279.422,288.608 278.384,288.057ZM321.695,288.036C320.65,288.593 319.597,289.118 318.542,289.61C319.048,289.731 319.579,289.868 320.132,290.025C320.295,290.071 320.411,290.208 320.435,290.369C322.256,290.087 323.971,289.706 325.584,289.234C324.291,288.813 323.078,288.493 321.976,288.25C321.854,288.222 321.752,288.143 321.695,288.036ZM272.863,284.791C272.806,284.866 272.724,284.921 272.629,284.945C271.132,285.316 269.502,285.816 267.786,286.487C268.91,287.107 270.101,287.67 271.364,288.172C271.403,288.056 271.492,287.961 271.611,287.915C273.056,287.353 274.434,286.911 275.713,286.563C274.749,285.998 273.797,285.408 272.863,284.791ZM327.211,284.769C326.271,285.391 325.313,285.985 324.344,286.554C325.632,286.903 327.021,287.348 328.48,287.915C328.592,287.958 328.678,288.047 328.72,288.155C329.975,287.654 331.159,287.093 332.275,286.476C330.57,285.81 328.95,285.314 327.461,284.945C327.357,284.919 327.269,284.855 327.211,284.769ZM268.094,281.213C268.041,281.265 267.976,281.303 267.902,281.322C266.303,281.733 264.586,282.283 262.795,283.015C263.65,283.756 264.561,284.456 265.53,285.11C265.575,285.032 265.645,284.968 265.731,284.932C267.427,284.205 269.059,283.639 270.586,283.199C269.732,282.567 268.9,281.906 268.094,281.213ZM331.975,281.19C331.165,281.887 330.327,282.552 329.468,283.189C331.007,283.631 332.65,284.2 334.36,284.932C334.437,284.965 334.501,285.019 334.545,285.086C335.508,284.435 336.413,283.738 337.261,283.002C335.483,282.276 333.777,281.731 332.188,281.322C332.104,281.3 332.03,281.253 331.975,281.19ZM264.155,277.287C264.113,277.316 264.065,277.338 264.013,277.351C262.419,277.745 260.721,278.27 258.957,278.966C259.099,279.148 259.243,279.329 259.39,279.508C259.402,279.522 259.414,279.537 259.426,279.551C259.69,279.873 259.961,280.189 260.24,280.501C260.508,280.799 260.782,281.093 261.065,281.383C261.106,281.334 261.158,281.295 261.219,281.269C262.951,280.523 264.627,279.94 266.21,279.485C265.496,278.784 264.809,278.052 264.155,277.287ZM335.906,277.264C335.249,278.033 334.56,278.769 333.842,279.474C335.437,279.931 337.126,280.517 338.872,281.269C338.921,281.29 338.965,281.32 339.002,281.357C339.274,281.076 339.541,280.791 339.8,280.501C340.079,280.19 340.35,279.873 340.615,279.552C340.627,279.537 340.639,279.522 340.651,279.508C340.801,279.324 340.95,279.138 341.095,278.951C339.345,278.262 337.66,277.742 336.077,277.351C336.013,277.335 335.955,277.305 335.906,277.264ZM261.061,273.027C261.031,273.042 260.999,273.053 260.965,273.061C259.407,273.4 257.754,273.859 256.037,274.473C256.524,275.38 257.054,276.267 257.629,277.128C257.662,277.101 257.7,277.078 257.74,277.062C259.446,276.369 261.098,275.828 262.666,275.408C262.52,275.208 262.375,275.006 262.233,274.801C261.833,274.224 261.442,273.633 261.061,273.027ZM338.992,273.006C338.607,273.62 338.213,274.218 337.808,274.801C337.668,275.002 337.526,275.2 337.383,275.397C338.963,275.818 340.63,276.362 342.35,277.062C342.378,277.073 342.404,277.087 342.428,277.103C343,276.245 343.527,275.362 344.012,274.458C342.31,273.852 340.671,273.397 339.126,273.061C339.078,273.05 339.033,273.032 338.992,273.006ZM348.235,273.495C347.833,274.408 347.397,275.306 346.924,276.185C347.891,275.496 348.788,274.732 349.617,273.9C349.172,273.762 348.73,273.635 348.293,273.516C348.273,273.51 348.254,273.504 348.235,273.495ZM251.813,273.511C251.808,273.513 251.803,273.514 251.798,273.516C251.348,273.638 250.894,273.77 250.436,273.911C251.261,274.739 252.153,275.499 253.117,276.185C252.647,275.311 252.213,274.419 251.813,273.511ZM300.02,268.269C305.074,268.36 308.919,268.13 312.48,267.825C307.599,270.332 303.505,274.111 300.02,274.111C296.536,274.111 292.441,270.332 287.561,267.825C291.122,268.13 294.966,268.36 300.02,268.269ZM258.54,268.547C258.516,268.556 258.491,268.563 258.465,268.568C257.034,268.824 255.521,269.176 253.948,269.653C254.136,270.262 254.353,270.868 254.603,271.462C254.746,271.803 254.894,272.142 255.048,272.478C255.071,272.464 255.096,272.452 255.121,272.443C256.766,271.847 258.358,271.386 259.872,271.034C259.413,270.225 258.97,269.396 258.54,268.547ZM341.51,268.529C341.079,269.381 340.635,270.213 340.175,271.023C341.702,271.378 343.308,271.841 344.969,272.443C344.98,272.447 344.992,272.452 345.003,272.457C345.422,271.538 345.801,270.602 346.143,269.653C344.57,269.177 343.057,268.824 341.625,268.568C341.585,268.56 341.546,268.547 341.51,268.529ZM249.954,268.41C248.943,268.645 247.908,268.925 246.854,269.258C247.46,270.275 248.122,271.236 248.846,272.136C248.892,272.091 248.948,272.056 249.01,272.036C249.671,271.818 250.323,271.62 250.968,271.44C250.592,270.443 250.255,269.431 249.954,268.41ZM350.09,268.399C349.79,269.419 349.453,270.43 349.078,271.428C349.737,271.61 350.404,271.813 351.08,272.036C351.13,272.052 351.176,272.078 351.215,272.11C351.934,271.214 352.592,270.257 353.194,269.245C352.147,268.915 351.118,268.637 350.113,268.405C350.105,268.403 350.098,268.401 350.09,268.399ZM343.637,263.916C343.271,264.784 342.894,265.638 342.505,266.475C343.888,266.738 345.338,267.087 346.837,267.543L346.838,267.543C346.92,267.268 346.999,266.992 347.076,266.715C347.272,266.008 347.414,265.312 347.51,264.641C347.496,264.639 347.482,264.636 347.468,264.633C346.176,264.33 344.931,264.106 343.743,263.945C343.706,263.94 343.671,263.93 343.637,263.916ZM256.41,263.932C256.39,263.938 256.369,263.942 256.347,263.945C255.273,264.091 254.152,264.288 252.991,264.548C253.066,265.492 253.198,266.487 253.403,267.498C254.833,267.069 256.217,266.737 257.539,266.484C257.152,265.649 256.775,264.797 256.41,263.932ZM248.725,263.155C247.348,263.404 245.923,263.737 244.461,264.168L244.442,264.173C244.845,265.251 245.291,266.289 245.783,267.285C245.813,267.266 245.846,267.25 245.881,267.239C247.07,266.852 248.237,266.53 249.377,266.264C249.126,265.233 248.909,264.195 248.725,263.155ZM351.317,263.146C351.134,264.185 350.917,265.223 350.666,266.253C351.821,266.522 353.004,266.847 354.21,267.239C354.23,267.245 354.25,267.253 354.269,267.263C354.758,266.27 355.202,265.235 355.603,264.161C354.133,263.728 352.701,263.395 351.317,263.146ZM345.47,259.211C345.153,260.089 344.827,260.956 344.492,261.811C345.516,261.96 346.578,262.155 347.674,262.402C347.675,261.188 347.525,260.143 347.294,259.383C347.233,259.404 347.167,259.412 347.101,259.403C346.584,259.336 346.077,259.281 345.581,259.236C345.542,259.233 345.505,259.224 345.47,259.211ZM254.576,259.225C254.554,259.23 254.532,259.234 254.51,259.236C254.081,259.275 253.645,259.321 253.201,259.376C253.042,260.119 252.934,261.124 252.917,262.292C253.82,262.1 254.699,261.943 255.551,261.818C255.217,260.966 254.892,260.101 254.576,259.225ZM248.056,257.824C246.407,258.027 244.686,258.344 242.906,258.801C242.886,258.806 242.866,258.81 242.846,258.812C243.105,259.928 243.397,261.017 243.726,262.074C243.742,262.067 243.76,262.06 243.777,262.055C245.358,261.586 246.896,261.227 248.384,260.959C248.244,259.912 248.135,258.865 248.056,257.824ZM351.986,257.818C351.906,258.859 351.798,259.905 351.658,260.951L351.675,260.953C353.172,261.222 354.722,261.583 356.313,262.055L356.32,262.058C356.647,261.003 356.939,259.917 357.196,258.804L357.185,258.801C355.387,258.339 353.649,258.021 351.986,257.818ZM300.02,255.638C301.664,255.395 303.548,254.515 305.483,253.5C310.975,256.158 316.194,257.66 321.249,258.469C321.045,260.141 319.849,260.944 317.485,260.722C315.934,260.536 313.836,260.213 311.435,260.163C305.994,260.051 303.211,260.665 300.02,260.665C296.829,260.665 294.047,260.051 288.606,260.163C286.205,260.213 284.107,260.536 282.556,260.722C280.191,260.944 278.996,260.141 278.791,258.469C283.847,257.66 289.066,256.158 294.558,253.5C296.493,254.515 298.377,255.395 300.02,255.638ZM238.555,254.147L238.546,254.147C237.362,254.146 236.135,254.198 234.867,254.313C235.681,255.423 236.598,256.474 237.622,257.462C237.694,257.372 237.802,257.313 237.922,257.305C238.308,257.278 238.69,257.256 239.068,257.24C238.874,256.226 238.703,255.194 238.555,254.147ZM361.487,254.143C361.338,255.191 361.167,256.224 360.973,257.238C361.367,257.255 361.765,257.277 362.169,257.305C362.276,257.312 362.375,257.36 362.446,257.436C363.461,256.455 364.37,255.41 365.177,254.309C363.926,254.196 362.714,254.146 361.545,254.147C361.525,254.147 361.506,254.145 361.487,254.143ZM247.892,252.489C246.008,252.601 244.017,252.852 241.939,253.288C241.911,253.294 241.884,253.297 241.857,253.297C242.008,254.432 242.185,255.549 242.391,256.642C242.399,256.639 242.406,256.637 242.414,256.635C244.322,256.147 246.165,255.813 247.929,255.602C247.889,254.554 247.878,253.515 247.892,252.489ZM352.149,252.486C352.163,253.512 352.152,254.551 352.112,255.597C352.123,255.598 352.134,255.599 352.145,255.6C353.906,255.81 355.747,256.143 357.652,256.629C357.857,255.538 358.034,254.426 358.184,253.293C358.174,253.292 358.163,253.29 358.152,253.288C356.055,252.848 354.047,252.596 352.149,252.486ZM237.995,248.813C236.084,248.736 234.052,248.791 231.913,249.025C232.375,250.15 232.911,251.236 233.526,252.278C233.585,252.234 233.656,252.205 233.731,252.196C235.304,252.019 236.821,251.935 238.276,251.927C238.163,250.901 238.069,249.863 237.995,248.813ZM368.13,249.02C366.007,248.79 363.99,248.736 362.092,248.813C362.077,248.813 362.061,248.813 362.046,248.812C361.972,249.862 361.878,250.901 361.765,251.926C363.235,251.933 364.768,252.017 366.359,252.196C366.42,252.203 366.478,252.223 366.529,252.254C367.138,251.218 367.671,250.139 368.13,249.02ZM248.199,247.214C246.084,247.191 243.815,247.333 241.419,247.712C241.397,247.716 241.375,247.718 241.353,247.718L241.326,247.691C241.395,248.838 241.485,249.972 241.599,251.091L241.606,251.09C243.828,250.629 245.955,250.369 247.965,250.261C248.018,249.227 248.097,248.21 248.199,247.214ZM358.713,247.717C358.699,247.716 358.685,247.715 358.672,247.712C356.257,247.33 353.972,247.188 351.842,247.215C351.944,248.21 352.023,249.227 352.076,250.26C352.09,250.259 352.104,250.259 352.118,250.26C354.118,250.368 356.233,250.625 358.443,251.081C358.555,249.974 358.645,248.852 358.713,247.717ZM300.02,238.939C303.34,238.847 306.103,238.284 308.513,237.422C310.635,238.963 311.664,240.504 311.786,242.044L307.694,243.705L305.103,241.033C303.336,243.159 302.151,245.284 301.966,247.41C301.533,247.968 300.919,248.335 300.02,248.4C299.122,248.335 298.508,247.968 298.075,247.41C297.89,245.284 296.705,243.159 294.938,241.033L292.346,243.705L288.255,242.044C288.377,240.504 289.406,238.963 291.528,237.422C293.938,238.284 296.701,238.847 300.02,238.939ZM237.771,243.468C235.463,243.277 232.967,243.271 230.306,243.538L230.293,243.539C230.515,244.689 230.798,245.811 231.142,246.899C231.182,246.882 231.224,246.87 231.267,246.864C233.588,246.588 235.793,246.512 237.865,246.585C237.818,245.555 237.787,244.515 237.771,243.468ZM369.749,243.534C367.098,243.271 364.611,243.278 362.31,243.469C362.297,243.47 362.283,243.471 362.27,243.47C362.254,244.517 362.223,245.556 362.176,246.587C364.262,246.511 366.483,246.585 368.823,246.864C368.851,246.868 368.878,246.874 368.904,246.882C369.247,245.797 369.527,244.68 369.749,243.534ZM248.965,242.06C246.604,241.853 244.02,241.838 241.248,242.127C241.217,242.131 241.186,242.13 241.155,242.127C241.159,243.258 241.18,244.382 241.221,245.496L241.222,245.496C243.785,245.099 246.211,244.958 248.468,244.997L248.469,244.997C248.612,243.988 248.778,243.008 248.965,242.06ZM358.886,242.13C358.871,242.13 358.857,242.129 358.842,242.127C356.051,241.836 353.45,241.853 351.076,242.065C351.263,243.012 351.43,243.993 351.572,245.001C351.589,244.999 351.606,244.997 351.623,244.997C353.866,244.959 356.275,245.097 358.82,245.488C358.861,244.378 358.882,243.258 358.886,242.13ZM237.817,238.13C235.345,237.815 232.645,237.706 229.743,237.911C229.72,237.913 229.698,237.913 229.675,237.911C229.714,239.079 229.803,240.226 229.945,241.348C229.964,241.343 229.985,241.34 230.005,241.338C232.765,241.055 235.357,241.051 237.761,241.239C237.766,240.208 237.785,239.17 237.817,238.13ZM370.366,237.912L370.348,237.911C367.441,237.706 364.739,237.816 362.264,238.131C362.251,238.132 362.237,238.134 362.224,238.134C362.256,239.175 362.275,240.212 362.28,241.243C364.697,241.051 367.307,241.053 370.085,241.338L370.097,241.339C370.238,240.22 370.326,239.077 370.366,237.912ZM248.223,236.795C248.19,236.799 248.156,236.799 248.122,236.795C246.038,236.547 243.775,236.445 241.358,236.564C241.328,236.566 241.298,236.564 241.269,236.559C241.221,237.679 241.188,238.794 241.17,239.903L241.171,239.903C243.956,239.621 246.564,239.632 248.957,239.832C248.709,238.82 248.464,237.807 248.223,236.795ZM358.772,236.565C358.759,236.565 358.746,236.565 358.732,236.564C356.315,236.445 354.053,236.547 351.968,236.795C351.918,236.801 351.868,236.798 351.82,236.786C351.577,237.803 351.332,238.82 351.083,239.836C353.476,239.633 356.084,239.62 358.871,239.898C358.853,238.792 358.82,237.681 358.772,236.565ZM370.19,232.232C370.173,232.234 370.156,232.234 370.138,232.234C367.198,232.15 364.478,232.378 362,232.805C361.986,232.808 361.972,232.809 361.958,232.81C362.028,233.845 362.089,234.878 362.137,235.908C364.67,235.595 367.426,235.487 370.381,235.689C370.369,235.023 370.342,234.352 370.3,233.674C370.27,233.196 370.234,232.716 370.19,232.232ZM238.084,232.804C235.607,232.378 232.89,232.15 229.952,232.234C229.918,232.235 229.884,232.232 229.851,232.225C229.807,232.71 229.77,233.194 229.741,233.674C229.699,234.354 229.671,235.027 229.659,235.693L229.674,235.692C232.623,235.487 235.375,235.592 237.904,235.902C237.953,234.872 238.013,233.838 238.084,232.804ZM358.307,231.034C358.28,231.04 358.253,231.043 358.225,231.043C356.474,231.058 354.812,231.186 353.247,231.395C353.196,231.402 353.144,231.399 353.095,231.388C352.851,232.428 352.606,233.472 352.359,234.517C354.323,234.314 356.429,234.236 358.659,234.338C358.636,233.94 358.611,233.542 358.584,233.144C358.535,232.42 358.439,231.711 358.307,231.034ZM241.846,231.042C241.618,232.044 241.455,233.114 241.39,234.202L241.382,234.34L241.387,234.34C243.615,234.236 245.718,234.311 247.681,234.512C247.435,233.471 247.191,232.432 246.948,231.396C246.914,231.4 246.878,231.4 246.843,231.395C245.278,231.186 243.617,231.058 241.865,231.043C241.859,231.043 241.852,231.043 241.846,231.042ZM369.388,226.572C369.365,226.576 369.342,226.579 369.318,226.579C366.508,226.642 363.916,226.981 361.554,227.494C361.538,227.497 361.523,227.499 361.507,227.501C361.61,228.529 361.705,229.559 361.79,230.588C364.285,230.168 367.009,229.941 369.943,230.009C369.794,228.876 369.609,227.73 369.388,226.572ZM230.655,226.56C230.433,227.722 230.247,228.873 230.098,230.01C233.031,229.938 235.756,230.163 238.252,230.58C238.337,229.55 238.431,228.52 238.534,227.493C236.173,226.981 233.582,226.642 230.773,226.579C230.732,226.578 230.693,226.572 230.655,226.56ZM355.936,225.596C355.868,225.684 355.766,225.744 355.649,225.757C355.335,225.793 355.024,225.832 354.716,225.875C354.62,225.888 354.526,225.868 354.446,225.822C354.39,225.956 354.339,226.113 354.296,226.294C354.074,227.227 353.852,228.167 353.63,229.109C354.934,228.956 356.299,228.858 357.72,228.829C357.209,227.339 356.55,226.174 355.936,225.596ZM244.21,225.655C243.635,226.236 243.007,227.378 242.486,228.832C243.848,228.863 245.156,228.958 246.41,229.103C246.182,228.137 245.955,227.176 245.727,226.221C245.693,226.077 245.654,225.95 245.61,225.839C245.538,225.873 245.457,225.886 245.375,225.875C245.067,225.832 244.756,225.793 244.441,225.757C244.353,225.747 244.274,225.711 244.21,225.655ZM224.752,224.816C225.398,225.881 226.133,226.943 226.96,227.999C227.119,226.999 227.304,225.99 227.514,224.973C226.616,224.894 225.696,224.841 224.752,224.816ZM375.288,224.818C374.345,224.844 373.425,224.898 372.528,224.977C372.737,225.993 372.922,227.001 373.08,227.999C373.906,226.944 374.64,225.884 375.288,224.818ZM368.087,220.991C368.062,220.999 368.035,221.003 368.008,221.005C365.459,221.209 363.105,221.632 360.953,222.194C360.935,222.198 360.918,222.202 360.9,222.204C361.031,223.227 361.155,224.254 361.271,225.283C363.615,224.785 366.173,224.45 368.931,224.369C368.68,223.252 368.398,222.126 368.087,220.991ZM232.016,220.995C231.778,221.711 231.563,222.454 231.377,223.222C231.285,223.605 231.196,223.987 231.11,224.368C233.868,224.446 236.426,224.777 238.771,225.273C238.887,224.244 239.011,223.217 239.142,222.195L239.138,222.194C236.985,221.632 234.631,221.209 232.083,221.005C232.06,221.004 232.038,221 232.016,220.995ZM377.964,218.985C375.548,218.937 373.271,219.066 371.134,219.336C371.467,220.499 371.77,221.654 372.043,222.8C372.062,222.796 372.081,222.793 372.101,222.791C373.45,222.665 374.849,222.595 376.297,222.588C376.365,222.587 376.43,222.603 376.489,222.633C377.087,221.421 377.577,220.205 377.964,218.985ZM228.909,219.33C226.77,219.062 224.493,218.936 222.075,218.986C222.465,220.213 222.959,221.437 223.562,222.655C223.63,222.611 223.71,222.587 223.794,222.588C225.242,222.595 226.641,222.665 227.989,222.791L228,222.792C228.273,221.646 228.576,220.491 228.909,219.33ZM366.075,215.568C366.037,215.586 365.997,215.599 365.954,215.605C363.9,215.916 361.987,216.363 360.217,216.901C360.197,216.906 360.177,216.911 360.158,216.914C360.312,217.933 360.462,218.959 360.605,219.99C362.7,219.454 364.974,219.045 367.422,218.827C367.032,217.713 366.574,216.617 366.075,215.568ZM234.435,215.652C233.866,216.627 233.322,217.693 232.832,218.842C235.199,219.061 237.403,219.46 239.438,219.978C239.581,218.947 239.73,217.922 239.885,216.904L239.874,216.901C238.19,216.389 236.376,215.959 234.435,215.652ZM379.056,213.171C375.536,213.047 372.302,213.282 369.347,213.776C369.754,214.92 370.136,216.058 370.491,217.19C370.514,217.183 370.537,217.178 370.561,217.175C373.021,216.851 375.655,216.705 378.467,216.787C378.495,216.787 378.522,216.791 378.549,216.797C378.812,215.591 378.979,214.382 379.056,213.171ZM230.697,213.768C227.751,213.279 224.531,213.047 221.026,213.171C221.011,213.171 220.997,213.171 220.983,213.17C221.06,214.386 221.228,215.6 221.493,216.811C221.534,216.796 221.578,216.788 221.623,216.787C224.435,216.705 227.069,216.851 229.529,217.175C229.537,217.176 229.546,217.177 229.554,217.179C229.909,216.048 230.29,214.91 230.697,213.768ZM363.12,210.481C363.077,210.512 363.027,210.536 362.974,210.549C361.708,210.857 360.505,211.214 359.363,211.607C359.341,211.614 359.319,211.62 359.297,211.624C359.473,212.64 359.645,213.668 359.812,214.703C361.434,214.221 363.168,213.811 365.013,213.507C364.396,212.399 363.752,211.376 363.12,210.481ZM238.047,210.787C237.318,211.554 236.525,212.503 235.738,213.621C237.319,213.908 238.818,214.271 240.231,214.689C240.398,213.654 240.57,212.628 240.745,211.613C240.739,211.611 240.734,211.609 240.728,211.607C239.869,211.311 238.976,211.036 238.047,210.787ZM319.989,205.26C318.095,205.814 318.413,207.993 316.312,208.276C311.878,208.874 309.341,210.053 308.193,212.742C306.93,203.209 307.08,197.893 316.351,191.538C328.785,188.548 339.016,189.204 348.538,191.033C346.203,193.591 336.504,191.569 331.545,192.515C327.543,193.279 325.153,194.592 322.103,196.232C329.055,196.293 334.154,196.845 338.196,197.677C340.711,197.36 343.319,197.488 344.923,197.749C346.877,209.418 333.197,216.435 320.262,212.072C326.206,212.925 334.371,212.403 334.377,208.51L331.854,206.704C329.791,212.367 320.864,212.2 319.989,205.26ZM280.052,205.26C281.946,205.814 281.628,207.993 283.729,208.276C288.163,208.874 290.699,210.053 291.848,212.742C293.111,203.209 292.961,197.893 283.69,191.538C271.256,188.548 261.025,189.204 251.503,191.033C253.838,193.591 263.537,191.569 268.496,192.515C272.498,193.279 274.888,194.592 277.938,196.232C270.986,196.293 265.887,196.845 261.845,197.677C259.33,197.36 256.722,197.488 255.117,197.749C253.164,209.418 266.844,216.435 279.779,212.072C273.835,212.925 265.67,212.403 265.663,208.51L268.186,206.704C270.249,212.367 279.176,212.2 280.052,205.26ZM378.755,207.306C378.728,207.311 378.701,207.313 378.673,207.312C374.454,207.206 370.648,207.592 367.23,208.316C367.699,209.437 368.146,210.554 368.57,211.668C368.595,211.659 368.621,211.652 368.648,211.647C371.822,211.095 375.301,210.829 379.099,210.963C379.069,209.745 378.952,208.526 378.755,207.306ZM232.816,208.306C229.409,207.588 225.618,207.206 221.417,207.312C221.372,207.313 221.328,207.307 221.286,207.295C221.087,208.519 220.97,209.744 220.94,210.966C220.95,210.965 220.96,210.964 220.97,210.964C224.776,210.828 228.263,211.094 231.443,211.647C231.454,211.649 231.465,211.651 231.476,211.654C231.9,210.542 232.347,209.425 232.816,208.306ZM361.645,208.594C359.715,206.402 358.274,205.949 358.781,208.723C358.811,208.828 358.831,208.935 358.84,209.045L358.907,209.416C359.786,209.12 360.698,208.844 361.645,208.594ZM241.137,209.4L241.201,209.045C241.21,208.935 241.23,208.828 241.259,208.723C241.335,208.313 240.826,208.435 239.995,209.035C240.382,209.152 240.762,209.274 241.137,209.4ZM325.89,205.252C325.207,205.252 324.653,205.806 324.653,206.488C324.653,207.171 325.207,207.725 325.89,207.725C326.572,207.725 327.126,207.171 327.126,206.488C327.126,205.806 326.572,205.252 325.89,205.252ZM274.151,205.252C274.833,205.252 275.387,205.806 275.387,206.488C275.387,207.171 274.833,207.725 274.151,207.725C273.469,207.725 272.915,207.171 272.915,206.488C272.915,205.806 273.469,205.252 274.151,205.252ZM377.201,201.425C377.155,201.441 377.106,201.451 377.056,201.451C372.497,201.467 368.434,202.036 364.832,202.967C365.355,204.062 365.858,205.157 366.34,206.249C366.366,206.238 366.392,206.229 366.42,206.223C369.971,205.446 373.926,205.016 378.31,205.097C378.016,203.872 377.644,202.648 377.201,201.425ZM222.846,201.406C222.399,202.636 222.025,203.867 221.729,205.098C226.133,205.013 230.106,205.443 233.671,206.223C233.683,206.226 233.696,206.229 233.708,206.233C234.19,205.142 234.693,204.049 235.214,202.956C231.623,202.031 227.575,201.467 223.035,201.451C222.968,201.45 222.904,201.435 222.846,201.406ZM271.689,199.895C275.892,199.895 278.65,200.415 278.65,201.282C278.65,202.149 276.782,201.708 272.605,202.206C267.573,202.807 264.117,203.351 264.117,202.484C264.117,201.616 267.486,199.895 271.689,199.895ZM328.352,199.895C324.149,199.895 321.391,200.415 321.391,201.282C321.391,202.149 323.259,201.708 327.435,202.206C332.468,202.807 335.924,203.351 335.924,202.484C335.924,201.616 332.555,199.895 328.352,199.895ZM374.577,195.622C374.522,195.652 374.46,195.67 374.395,195.673C369.818,195.886 365.766,196.637 362.194,197.735C362.762,198.804 363.312,199.873 363.846,200.943C363.871,200.931 363.897,200.921 363.925,200.914C367.591,199.938 371.717,199.321 376.338,199.251C375.816,198.039 375.227,196.829 374.577,195.622ZM225.476,195.599C224.821,196.814 224.228,198.032 223.703,199.25C228.345,199.317 232.486,199.934 236.166,200.914C236.179,200.917 236.192,200.921 236.204,200.926C236.736,199.858 237.286,198.79 237.854,197.722C234.291,196.631 230.254,195.885 225.696,195.673C225.616,195.669 225.54,195.643 225.476,195.599ZM371.115,189.996C371.057,190.036 370.989,190.062 370.916,190.069C366.569,190.507 362.728,191.415 359.346,192.625C359.953,193.667 360.546,194.711 361.123,195.756C361.147,195.743 361.172,195.732 361.199,195.724C364.779,194.596 368.826,193.8 373.382,193.518C372.68,192.341 371.922,191.166 371.115,189.996ZM228.943,189.971C228.131,191.148 227.368,192.33 226.66,193.515C231.236,193.794 235.299,194.592 238.891,195.724C238.904,195.728 238.917,195.732 238.929,195.737C239.505,194.693 240.097,193.651 240.704,192.611C237.331,191.408 233.504,190.505 229.175,190.069C229.088,190.061 229.008,190.026 228.943,189.971ZM367.055,184.618C366.999,184.665 366.93,184.696 366.855,184.709C362.902,185.351 359.402,186.372 356.309,187.638C356.953,188.652 357.583,189.671 358.198,190.691C358.221,190.677 358.246,190.666 358.271,190.656C361.624,189.432 365.411,188.489 369.677,187.985C368.843,186.857 367.968,185.734 367.055,184.618ZM233.007,184.593C232.712,184.954 232.421,185.315 232.134,185.677C231.527,186.442 230.938,187.208 230.368,187.979C234.652,188.483 238.455,189.427 241.819,190.656C241.831,190.661 241.843,190.666 241.855,190.671C242.47,189.651 243.099,188.634 243.742,187.622C240.659,186.364 237.172,185.348 233.236,184.709C233.148,184.694 233.069,184.653 233.007,184.593ZM376.639,187.304C375.64,187.443 374.671,187.611 373.73,187.805C374.308,188.636 374.863,189.469 375.392,190.304C375.872,189.287 376.286,188.287 376.639,187.304ZM223.4,187.297C223.753,188.282 224.168,189.283 224.647,190.3C225.179,189.464 225.736,188.629 226.316,187.796C225.373,187.602 224.402,187.435 223.4,187.297ZM378.066,181.275C375.134,181.579 372.444,182.124 369.986,182.841C370.803,183.849 371.589,184.86 372.342,185.874C372.389,185.84 372.442,185.815 372.501,185.802C373.992,185.468 375.556,185.196 377.194,185C377.25,184.993 377.305,184.998 377.357,185.012C377.698,183.739 377.932,182.494 378.066,181.275ZM221.977,181.27C222.111,182.496 222.346,183.748 222.689,185.027C222.754,185.001 222.825,184.991 222.896,185C224.535,185.196 226.099,185.468 227.59,185.802C227.635,185.812 227.677,185.829 227.715,185.852C228.283,185.087 228.869,184.325 229.473,183.564C229.667,183.32 229.863,183.076 230.063,182.829C227.602,182.114 224.91,181.571 221.977,181.27ZM362.609,179.521C362.556,179.57 362.49,179.606 362.416,179.623C358.942,180.421 355.85,181.505 353.103,182.774L353.154,182.849C353.2,182.907 353.242,182.968 353.28,183.032C353.894,183.934 354.499,184.84 355.094,185.749C355.115,185.735 355.138,185.723 355.162,185.713C358.199,184.448 361.618,183.406 365.455,182.709C364.538,181.641 363.589,180.579 362.609,179.521ZM237.458,179.497C236.473,180.56 235.518,181.628 234.595,182.702C238.449,183.398 241.881,184.443 244.929,185.713C244.94,185.718 244.951,185.723 244.961,185.728C245.552,184.825 246.152,183.926 246.761,183.032C246.799,182.968 246.841,182.907 246.887,182.849L246.95,182.756C244.212,181.495 241.132,180.417 237.674,179.623C237.59,179.604 237.515,179.559 237.458,179.497ZM377.929,175.422C377.919,175.424 377.909,175.425 377.9,175.426C373.387,175.878 369.434,176.878 365.991,178.2C366.841,179.135 367.668,180.074 368.47,181.017C368.513,180.98 368.563,180.952 368.619,180.935C371.486,180.048 374.657,179.382 378.151,179.045C378.167,179.043 378.183,179.042 378.2,179.043C378.205,178.476 378.189,177.915 378.151,177.36C378.106,176.706 378.032,176.06 377.929,175.422ZM222.114,175.411C221.923,176.597 221.83,177.808 221.843,179.046C221.875,179.042 221.907,179.041 221.94,179.045C225.433,179.382 228.605,180.048 231.472,180.935C231.514,180.948 231.553,180.968 231.589,180.992C232.388,180.053 233.212,179.117 234.06,178.185C230.626,176.871 226.686,175.876 222.191,175.426C222.165,175.423 222.139,175.418 222.114,175.411ZM357.929,174.707C357.88,174.758 357.818,174.796 357.749,174.816C354.782,175.709 352.121,176.805 349.738,178.034C350.443,178.993 351.139,179.959 351.823,180.931C351.843,180.917 351.864,180.905 351.887,180.894C354.565,179.637 357.56,178.548 360.904,177.714C359.935,176.706 358.942,175.703 357.929,174.707ZM242.14,174.683C241.121,175.684 240.123,176.691 239.149,177.705C242.509,178.54 245.516,179.633 248.204,180.894C248.214,180.899 248.223,180.904 248.233,180.91C248.917,179.939 249.612,178.973 250.317,178.015C247.942,176.794 245.294,175.705 242.342,174.816C242.262,174.792 242.192,174.746 242.14,174.683ZM376.202,169.718C376.164,169.736 376.122,169.748 376.079,169.753C370.501,170.455 365.798,171.964 361.868,173.866C362.727,174.732 363.57,175.602 364.394,176.476C364.432,176.44 364.476,176.411 364.526,176.391C368.237,174.899 372.53,173.76 377.464,173.25C377.141,172.045 376.718,170.869 376.202,169.718ZM223.849,169.698C223.33,170.853 222.904,172.035 222.579,173.245C227.532,173.752 231.842,174.894 235.565,176.391C235.602,176.406 235.636,176.426 235.667,176.45C236.488,175.579 237.328,174.713 238.186,173.848C234.263,171.954 229.572,170.452 224.012,169.753C223.953,169.746 223.898,169.727 223.849,169.698ZM353.123,170.161C353.078,170.21 353.022,170.248 352.959,170.272C350.485,171.199 348.246,172.263 346.222,173.418C346.957,174.35 347.682,175.29 348.398,176.238C348.417,176.224 348.436,176.211 348.457,176.2C350.766,174.993 353.326,173.905 356.161,172.996C355.164,172.044 354.151,171.099 353.123,170.161ZM246.946,170.136C245.914,171.079 244.895,172.029 243.894,172.984C246.744,173.896 249.315,174.988 251.634,176.2C251.642,176.205 251.651,176.21 251.659,176.215C252.375,175.269 253.1,174.33 253.834,173.399C251.819,172.251 249.592,171.194 247.132,170.272C247.057,170.244 246.994,170.197 246.946,170.136ZM372.972,164.264C372.92,164.303 372.858,164.33 372.792,164.341C366.703,165.416 361.726,167.425 357.695,169.808C358.549,170.611 359.391,171.418 360.22,172.229C360.252,172.196 360.29,172.169 360.332,172.147C364.421,170.097 369.326,168.447 375.161,167.646C374.52,166.493 373.786,165.367 372.972,164.264ZM227.089,164.239C226.268,165.348 225.53,166.481 224.885,167.64C230.739,168.438 235.659,170.092 239.758,172.147C239.789,172.163 239.818,172.182 239.844,172.204C240.671,171.394 241.513,170.589 242.364,169.789C238.339,167.414 233.371,165.414 227.298,164.341C227.219,164.327 227.147,164.291 227.089,164.239ZM348.262,165.853C348.222,165.899 348.172,165.937 348.115,165.963C346.077,166.881 344.215,167.889 342.515,168.958C343.196,169.711 343.86,170.483 344.506,171.276C344.612,171.407 344.719,171.539 344.825,171.67C344.842,171.656 344.86,171.644 344.879,171.633C346.829,170.505 348.97,169.46 351.32,168.534C350.311,167.633 349.29,166.74 348.262,165.853ZM251.807,165.826C250.774,166.717 249.749,167.615 248.736,168.52C251.099,169.45 253.251,170.5 255.211,171.633C255.219,171.637 255.227,171.642 255.234,171.647C255.335,171.523 255.435,171.4 255.535,171.276C256.187,170.476 256.856,169.698 257.543,168.938C255.853,167.877 254.001,166.875 251.976,165.963C251.907,165.932 251.85,165.885 251.807,165.826ZM368.544,159.203C368.49,159.258 368.421,159.298 368.344,159.317C362.246,160.835 357.375,163.266 353.519,165.99C354.359,166.737 355.191,167.489 356.015,168.246C356.041,168.217 356.072,168.192 356.106,168.171C360.212,165.676 365.272,163.546 371.454,162.343C370.555,161.275 369.582,160.229 368.544,159.203ZM231.523,159.177C230.479,160.209 229.499,161.261 228.595,162.335C234.795,163.536 239.869,165.671 243.984,168.171C244.008,168.186 244.031,168.203 244.051,168.222C244.874,167.466 245.707,166.715 246.544,165.971C242.693,163.255 237.831,160.831 231.746,159.317C231.657,159.295 231.58,159.245 231.523,159.177ZM343.39,161.751C343.354,161.794 343.311,161.83 343.26,161.856C341.504,162.783 339.893,163.773 338.414,164.808C339.286,165.618 340.142,166.454 340.979,167.317C340.999,167.297 341.021,167.28 341.045,167.265C342.692,166.213 344.486,165.216 346.441,164.298C345.43,163.442 344.412,162.593 343.39,161.751ZM256.679,161.722C255.653,162.568 254.631,163.421 253.614,164.282C255.583,165.204 257.389,166.207 259.046,167.265C259.059,167.274 259.072,167.283 259.085,167.293C259.921,166.431 260.777,165.596 261.647,164.787C260.176,163.76 258.575,162.776 256.83,161.856C256.769,161.824 256.717,161.777 256.679,161.722ZM363.365,154.62C363.315,154.683 363.248,154.731 363.17,154.757C357.408,156.704 352.886,159.448 349.366,162.376C350.188,163.076 351.006,163.781 351.818,164.49C351.838,164.466 351.862,164.444 351.888,164.425C355.761,161.63 360.631,159.109 366.702,157.46C366.467,157.246 366.228,157.033 365.987,156.821C365.954,156.794 365.922,156.765 365.891,156.736C365.077,156.022 364.235,155.318 363.365,154.62ZM236.706,154.594C235.832,155.294 234.984,156.003 234.164,156.722C234.124,156.761 234.083,156.798 234.039,156.832C233.807,157.037 233.577,157.243 233.349,157.45C239.439,159.098 244.321,161.624 248.202,164.425C248.22,164.438 248.236,164.452 248.251,164.467C249.062,163.76 249.879,163.057 250.702,162.357C247.185,159.436 242.67,156.699 236.921,154.757C236.832,154.727 236.757,154.669 236.706,154.594ZM338.532,157.82C338.501,157.859 338.463,157.892 338.42,157.919C336.809,158.894 335.333,159.92 333.981,160.98C334.91,161.728 335.829,162.498 336.735,163.292C336.756,163.268 336.781,163.246 336.807,163.227C338.264,162.191 339.845,161.194 341.562,160.256C340.553,159.436 339.542,158.624 338.532,157.82ZM261.536,157.789C260.521,158.597 259.506,159.413 258.493,160.237C260.224,161.18 261.817,162.183 263.283,163.227C263.3,163.239 263.316,163.252 263.331,163.267C264.234,162.474 265.152,161.705 266.08,160.957C264.735,159.905 263.269,158.887 261.671,157.919C261.616,157.885 261.57,157.841 261.536,157.789ZM357.832,150.517C357.788,150.581 357.727,150.632 357.654,150.665C352.417,152.969 348.362,155.912 345.245,158.93C346.049,159.591 346.851,160.256 347.649,160.925C347.664,160.907 347.681,160.89 347.7,160.874C351.211,157.908 355.687,155.109 361.347,153.052C360.21,152.194 359.035,151.349 357.832,150.517ZM242.242,150.492C241.031,151.329 239.851,152.177 238.708,153.039C244.386,155.098 248.872,157.902 252.391,160.874C252.402,160.883 252.413,160.894 252.423,160.904C253.22,160.236 254.021,159.573 254.826,158.912C251.712,155.901 247.663,152.964 242.437,150.665C242.354,150.628 242.287,150.567 242.242,150.492ZM333.703,154.027C333.676,154.062 333.644,154.092 333.607,154.117C332.043,155.187 330.62,156.301 329.323,157.442C330.286,158.136 331.246,158.847 332.198,159.578C332.219,159.552 332.242,159.527 332.269,159.506C333.624,158.425 335.099,157.375 336.705,156.374C335.701,155.583 334.699,154.801 333.703,154.027ZM266.364,153.994C265.363,154.771 264.358,155.557 263.349,156.352C264.97,157.359 266.457,158.417 267.821,159.506C267.838,159.519 267.853,159.533 267.867,159.548C268.817,158.817 269.774,158.106 270.733,157.413C269.446,156.281 268.034,155.177 266.483,154.117C266.435,154.084 266.395,154.042 266.364,153.994ZM352.212,146.839C352.175,146.899 352.122,146.95 352.058,146.986C347.419,149.551 343.867,152.595 341.16,155.622C341.946,156.25 342.732,156.882 343.516,157.518C343.526,157.506 343.537,157.494 343.548,157.483C346.647,154.451 350.636,151.486 355.739,149.102C354.586,148.338 353.409,147.585 352.212,146.839ZM247.865,146.815C246.663,147.564 245.48,148.321 244.321,149.087C249.438,151.474 253.437,154.444 256.542,157.483C256.548,157.488 256.553,157.494 256.558,157.499C257.343,156.863 258.129,156.232 258.915,155.605C256.21,152.584 252.662,149.546 248.033,146.986C247.96,146.946 247.902,146.886 247.865,146.815ZM328.91,150.341C328.887,150.371 328.86,150.397 328.83,150.421C327.248,151.625 325.823,152.872 324.541,154.14C325.516,154.789 326.494,155.453 327.473,156.134C327.492,156.107 327.513,156.083 327.538,156.061C328.854,154.882 330.297,153.728 331.881,152.619C330.884,151.851 329.892,151.091 328.91,150.341ZM271.156,150.305C270.17,151.058 269.175,151.821 268.173,152.594C269.771,153.711 271.227,154.873 272.552,156.061C272.565,156.072 272.576,156.084 272.587,156.096C273.562,155.415 274.537,154.75 275.508,154.099C274.237,152.845 272.826,151.612 271.261,150.421C271.219,150.388 271.183,150.349 271.156,150.305ZM346.66,143.505C346.628,143.56 346.584,143.607 346.531,143.644C342.491,146.375 339.425,149.441 337.107,152.42L337.107,152.421C337.876,153.022 338.648,153.629 339.42,154.239C339.424,154.233 339.43,154.226 339.435,154.22C342.124,151.196 345.609,148.156 350.105,145.545C348.97,144.859 347.82,144.179 346.66,143.505ZM253.419,143.484C252.254,144.16 251.1,144.842 249.96,145.531C254.468,148.145 257.962,151.19 260.655,154.22L260.657,154.222C261.43,153.611 262.202,153.005 262.971,152.405C260.655,149.431 257.593,146.37 253.56,143.644C253.499,143.603 253.451,143.547 253.419,143.484ZM324.158,146.728C324.139,146.753 324.117,146.776 324.092,146.796C322.459,148.164 321.009,149.572 319.72,150.997C320.689,151.619 321.67,152.252 322.657,152.897C322.673,152.873 322.691,152.851 322.711,152.83C324.023,151.512 325.48,150.215 327.097,148.96C326.105,148.205 325.125,147.461 324.158,146.728ZM275.907,146.69C274.936,147.427 273.951,148.175 272.957,148.931C274.589,150.195 276.057,151.503 277.379,152.83C277.384,152.836 277.389,152.841 277.394,152.847C278.378,152.199 279.354,151.564 280.318,150.939C279.043,149.534 277.61,148.146 275.998,146.796C275.962,146.766 275.931,146.73 275.907,146.69ZM361.205,148.766C362.909,149.975 364.545,151.208 366.097,152.47C366.314,151.316 366.403,150.203 366.376,149.13C366.354,149.131 366.332,149.13 366.31,149.128C364.546,148.924 362.845,148.807 361.205,148.766ZM238.837,148.767C237.212,148.809 235.527,148.926 233.78,149.128C233.749,149.131 233.717,149.131 233.686,149.128C233.65,150.201 233.733,151.314 233.947,152.469C235.499,151.208 237.135,149.974 238.837,148.767ZM341.245,140.435C341.219,140.481 341.184,140.524 341.141,140.558C337.67,143.367 335.055,146.392 333.092,149.278C333.088,149.285 333.083,149.292 333.078,149.298C333.833,149.879 334.592,150.465 335.355,151.057L335.355,151.057C337.659,148.093 340.663,145.05 344.568,142.303C343.467,141.676 342.358,141.053 341.245,140.435ZM258.835,140.415C257.719,141.035 256.607,141.659 255.501,142.288C259.41,145.034 262.417,148.077 264.723,151.042C265.486,150.451 266.246,149.865 267.002,149.284L266.998,149.278C265.035,146.392 262.421,143.367 258.949,140.558C258.901,140.519 258.862,140.47 258.835,140.415ZM319.452,143.154C319.437,143.175 319.42,143.194 319.401,143.211C317.707,144.751 316.227,146.33 314.934,147.914L315.316,148.163C316.141,148.698 316.981,149.239 317.833,149.785C317.844,149.766 317.858,149.748 317.873,149.732C319.195,148.252 320.683,146.787 322.357,145.362C321.372,144.615 320.403,143.879 319.452,143.154ZM280.612,143.116C279.659,143.843 278.686,144.581 277.697,145.332C279.381,146.761 280.876,148.231 282.204,149.717C283.185,149.081 284.148,148.455 285.09,147.833C283.813,146.276 282.355,144.725 280.69,143.211C280.659,143.183 280.633,143.151 280.612,143.116ZM335.992,137.553C335.971,137.591 335.944,137.626 335.912,137.657C332.956,140.476 330.744,143.414 329.091,146.186C329.082,146.2 329.073,146.213 329.064,146.226C329.808,146.793 330.559,147.366 331.315,147.945C333.272,145.08 335.835,142.094 339.183,139.296C338.12,138.712 337.056,138.131 335.992,137.553ZM264.09,137.535C263.024,138.113 261.957,138.695 260.89,139.281C264.241,142.079 266.806,145.065 268.766,147.931C269.522,147.353 270.273,146.78 271.017,146.213C271.011,146.204 271.005,146.195 271,146.186C269.346,143.414 267.134,140.476 264.179,137.657C264.141,137.621 264.111,137.58 264.09,137.535ZM247.079,143.37C243.574,142.887 239.708,142.753 235.457,143.1C235.396,143.105 235.335,143.097 235.278,143.076C234.658,144.289 234.204,145.558 233.941,146.89C236.594,146.601 239.107,146.5 241.488,146.556C241.619,146.559 241.738,146.622 241.814,146.722C243.521,145.585 245.28,144.469 247.079,143.37ZM364.859,143.056C364.791,143.091 364.713,143.107 364.633,143.1C360.366,142.751 356.487,142.888 352.972,143.375C354.778,144.48 356.547,145.601 358.261,146.743C358.336,146.631 358.462,146.559 358.603,146.556C360.981,146.5 363.492,146.601 366.142,146.889C365.895,145.552 365.459,144.277 364.859,143.056ZM314.805,139.582C314.793,139.597 314.78,139.611 314.766,139.625C313.034,141.314 311.541,143.037 310.254,144.759C311.159,145.401 312.101,146.043 313.072,146.689C313.079,146.678 313.087,146.668 313.095,146.657C314.422,145.018 315.937,143.387 317.67,141.793C316.69,141.041 315.734,140.304 314.805,139.582ZM285.259,139.543C284.327,140.268 283.369,141.007 282.386,141.76C284.111,143.345 285.622,144.967 286.945,146.596C287.911,145.943 288.848,145.294 289.751,144.645C288.483,142.961 287.018,141.276 285.324,139.625C285.299,139.6 285.277,139.573 285.259,139.543ZM330.899,134.794C330.883,134.823 330.864,134.85 330.841,134.875C328.34,137.65 326.478,140.474 325.092,143.116C325.081,143.137 325.069,143.157 325.054,143.175L325.585,143.579C325.934,143.844 326.283,144.11 326.632,144.375L327.289,144.875C328.943,142.13 331.115,139.24 333.963,136.453C332.938,135.898 331.916,135.345 330.899,134.794ZM268.912,134.923C268.595,135.095 268.279,135.266 267.962,135.438L266.112,136.438C268.964,139.226 271.138,142.116 272.793,144.862C273.546,144.29 274.291,143.724 275.028,143.164C275.017,143.149 275.007,143.133 274.998,143.116C273.612,140.474 271.751,137.65 269.249,134.875C269.222,134.845 269.2,134.812 269.183,134.777L268.912,134.923ZM310.258,135.937C310.251,135.946 310.243,135.954 310.236,135.962C308.534,137.714 307.074,139.493 305.825,141.264C305.816,141.276 305.807,141.288 305.797,141.3C306.628,142.024 307.519,142.739 308.462,143.45C309.775,141.691 311.294,139.932 313.049,138.207L312.754,137.975C312.104,137.46 311.203,136.722 310.258,135.937ZM289.823,135.925C288.922,136.657 287.982,137.407 287.008,138.174C288.736,139.869 290.235,141.597 291.535,143.325C292.022,142.954 292.497,142.581 292.957,142.207C293.384,141.861 293.793,141.509 294.187,141.154C292.956,139.419 291.522,137.678 289.855,135.962C289.843,135.95 289.833,135.938 289.823,135.925ZM325.953,132.097C325.942,132.116 325.93,132.135 325.916,132.153C323.809,134.842 322.246,137.532 321.088,140.036C321.074,140.064 321.058,140.091 321.04,140.115L321.513,140.478C321.846,140.732 322.179,140.986 322.512,141.24L323.269,141.817C324.661,139.206 326.493,136.437 328.904,133.711C327.913,133.172 326.928,132.634 325.953,132.097ZM274.128,132.08C273.152,132.618 272.166,133.157 271.174,133.696C273.587,136.423 275.421,139.192 276.814,141.805C277.568,141.231 278.311,140.664 279.043,140.104C279.027,140.083 279.014,140.06 279.003,140.036C277.844,137.532 276.281,134.842 274.175,132.153C274.157,132.13 274.141,132.106 274.128,132.08ZM360.122,136.925C360.043,137.011 359.931,137.062 359.811,137.062C354.406,137.066 349.693,137.834 345.61,139.063C347.164,139.942 348.707,140.83 350.23,141.73C350.292,141.626 350.395,141.551 350.518,141.529C354.391,140.817 358.72,140.515 363.534,140.811C362.592,139.449 361.442,138.158 360.122,136.925ZM240.113,137.027C238.79,138.224 237.632,139.479 236.676,140.803C241.442,140.52 245.732,140.823 249.572,141.529C249.686,141.55 249.784,141.616 249.846,141.708C251.362,140.813 252.897,139.929 254.446,139.053C250.37,137.829 245.669,137.066 240.28,137.062C240.221,137.062 240.165,137.05 240.113,137.027ZM308.547,134.524C307.793,133.99 306.859,133.763 305.937,133.898C304.91,134.048 303.997,134.632 303.43,135.502C303.43,135.503 303.43,135.503 303.429,135.504C302.631,136.728 302.78,138.34 303.787,139.398C303.909,139.525 304.033,139.651 304.159,139.777C305.415,138.02 306.867,136.26 308.547,134.524ZM293.967,132.431C293.201,133.107 292.389,133.802 291.535,134.515C293.163,136.196 294.578,137.902 295.807,139.604C296.416,138.989 296.99,138.375 297.54,137.772C297.617,137.687 297.694,137.601 297.771,137.512C296.796,135.99 295.29,133.988 293.967,132.431ZM321.139,129.402C321.133,129.412 321.127,129.422 321.12,129.431C319.35,132.004 318.039,134.544 317.068,136.907C317.053,136.943 317.034,136.976 317.01,137.006C317.74,137.576 318.487,138.154 319.246,138.738C320.416,136.268 321.958,133.64 323.991,131.01C323.029,130.474 322.078,129.938 321.139,129.402ZM278.942,129.384C278.003,129.921 277.05,130.458 276.087,130.995C278.123,133.626 279.667,136.254 280.839,138.725C281.598,138.14 282.343,137.563 283.071,136.995C283.052,136.968 283.035,136.938 283.022,136.907C282.052,134.544 280.741,132.004 278.97,129.431C278.96,129.416 278.95,129.401 278.942,129.384ZM352.733,131.482C352.668,131.59 352.556,131.665 352.426,131.682C347.259,132.358 342.85,133.73 339.115,135.463C340.446,136.19 341.779,136.922 343.105,137.659C343.155,137.569 343.237,137.499 343.337,137.465C347.46,136.055 352.236,135.091 357.73,134.893C356.204,133.705 354.526,132.572 352.733,131.482ZM247.604,131.67C246.815,132.136 246.047,132.611 245.303,133.095C244.398,133.685 243.528,134.288 242.701,134.907C248.052,135.131 252.715,136.084 256.753,137.465C256.845,137.496 256.922,137.558 256.972,137.637C258.294,136.901 259.621,136.172 260.945,135.448C257.217,133.723 252.818,132.356 247.664,131.682C247.644,131.68 247.624,131.676 247.604,131.67ZM297.736,128.85C297.671,128.919 297.608,128.984 297.549,129.045C296.967,129.646 296.33,130.268 295.642,130.912C296.729,132.225 298.33,134.338 299.224,135.672C299.817,134.855 300.393,133.987 300.926,133.145C300.071,131.838 298.869,130.227 297.736,128.85ZM316.441,126.642L316.441,126.643C314.953,129.073 313.848,131.454 313.029,133.676C313.013,133.72 312.989,133.76 312.961,133.796C313.687,134.384 314.438,134.984 315.212,135.595C316.199,133.267 317.499,130.792 319.211,128.289C318.271,127.74 317.347,127.192 316.441,126.642ZM283.638,126.624C282.733,127.174 281.809,127.723 280.868,128.272C282.582,130.776 283.883,133.252 284.872,135.58C285.644,134.97 286.394,134.37 287.119,133.782C287.095,133.75 287.076,133.714 287.061,133.676C286.242,131.454 285.137,129.073 283.65,126.643C283.646,126.637 283.642,126.63 283.638,126.624ZM344.68,127.163C344.629,127.27 344.534,127.353 344.416,127.387C340.072,128.634 336.403,130.372 333.325,132.316C334.479,132.942 335.639,133.571 336.8,134.202C336.841,134.127 336.904,134.065 336.982,134.026C340.614,132.207 344.888,130.705 349.886,129.834C348.217,128.915 346.474,128.026 344.68,127.163ZM255.779,127.417C254.038,128.23 252.345,129.064 250.721,129.927C255.497,130.809 259.602,132.27 263.108,134.026C263.178,134.061 263.236,134.114 263.277,134.178C264.434,133.549 265.589,132.923 266.738,132.299C263.691,130.377 260.065,128.659 255.779,127.417ZM311.854,123.737C310.613,125.982 309.681,128.172 308.983,130.231C308.964,130.288 308.933,130.339 308.893,130.382C309.059,130.534 309.208,130.666 309.334,130.775C309.922,131.282 310.534,131.799 311.167,132.325C312.007,130.145 313.107,127.834 314.549,125.48L314.551,125.476C313.629,124.898 312.729,124.318 311.854,123.737ZM288.224,123.715C287.35,124.297 286.45,124.878 285.527,125.458C285.532,125.465 285.537,125.472 285.542,125.48C286.979,127.827 288.077,130.131 288.915,132.305C289.709,131.643 290.467,130.998 291.186,130.369C291.152,130.329 291.125,130.282 291.107,130.231C290.407,128.165 289.471,125.967 288.224,123.715ZM337.158,123.777C337.118,123.873 337.043,123.952 336.944,123.997C333.461,125.587 330.535,127.48 328.093,129.457C329.105,130.015 330.128,130.575 331.156,131.136C331.189,131.077 331.235,131.025 331.293,130.986C334.251,129.02 337.755,127.224 341.882,125.853C340.332,125.147 338.754,124.457 337.158,123.777ZM263.376,124.103C261.83,124.741 260.299,125.39 258.794,126.052C262.668,127.396 265.981,129.113 268.797,130.986C268.847,131.019 268.889,131.062 268.92,131.112C269.946,130.552 270.964,129.994 271.973,129.437C269.59,127.511 266.747,125.666 263.376,124.103ZM302.166,131.007C302.531,129.986 302.296,128.824 301.518,128.022C301.519,128.021 301.519,128.021 301.518,128.02C301.118,127.608 300.567,127.378 299.992,127.385C299.823,127.387 299.656,127.409 299.495,127.45C300.372,128.549 301.413,129.93 302.166,131.007ZM292.702,120.539C291.734,121.269 290.955,121.829 290.489,122.159C290.348,122.259 290.205,122.359 290.062,122.46C290.076,122.478 290.089,122.497 290.1,122.517C291.301,124.67 292.231,126.778 292.951,128.781C293.734,128.057 294.455,127.356 295.107,126.682C295.141,126.647 295.188,126.596 295.247,126.53C295.182,126.479 295.132,126.41 295.106,126.329C294.509,124.509 293.736,122.597 292.738,120.639C292.722,120.607 292.71,120.574 292.702,120.539ZM307.382,120.564C307.374,120.59 307.364,120.615 307.352,120.639C306.355,122.597 305.582,124.509 304.985,126.329C304.964,126.392 304.928,126.449 304.883,126.495C305.622,127.231 306.421,128.02 307.156,128.733C307.874,126.745 308.799,124.653 309.991,122.517C309.997,122.505 310.005,122.493 310.013,122.482C309.244,121.945 308.5,121.407 307.781,120.867C307.672,120.784 307.563,120.702 307.456,120.619C307.431,120.6 307.407,120.582 307.382,120.564ZM330.419,120.992C330.387,121.073 330.33,121.143 330.254,121.191C327.506,122.938 325.209,124.853 323.301,126.768C324.2,127.283 325.111,127.797 326.034,128.313C326.059,128.269 326.092,128.229 326.132,128.195C328.474,126.23 331.259,124.329 334.551,122.682C333.178,122.113 331.798,121.55 330.419,120.992ZM270.147,121.39C268.807,121.916 267.465,122.446 266.129,122.983C269.166,124.558 271.758,126.348 273.959,128.195C273.991,128.222 274.019,128.254 274.041,128.288C274.96,127.774 275.87,127.261 276.768,126.747C274.936,124.91 272.748,123.077 270.147,121.39ZM255.02,121.06C253.578,122.548 252.418,124.089 251.618,125.67C253.961,124.515 256.414,123.407 258.926,122.332C257.734,121.896 256.398,121.305 255.302,121.205C255.191,121.195 255.09,121.142 255.02,121.06ZM324.387,118.562C324.361,118.626 324.319,118.683 324.265,118.729C322.119,120.508 320.335,122.361 318.859,124.162C319.668,124.65 320.49,125.139 321.327,125.628C321.344,125.598 321.365,125.571 321.389,125.546C323.222,123.661 325.407,121.771 327.998,120.016C326.787,119.529 325.582,119.045 324.387,118.562ZM276.186,119.031C275.019,119.488 273.842,119.947 272.661,120.408C275.005,122.05 277.004,123.801 278.701,125.546C278.718,125.564 278.734,125.582 278.747,125.602C279.582,125.115 280.404,124.627 281.212,124.138C279.824,122.446 278.163,120.709 276.186,119.031ZM345.046,121.086C344.978,121.153 344.887,121.196 344.788,121.205C343.453,121.326 342.168,121.499 340.932,121.716C343.389,122.795 345.793,123.905 348.096,125.06C347.324,123.701 346.29,122.373 345.046,121.086ZM297.186,116.937C296.267,117.729 295.362,118.469 294.52,119.135C295.259,120.661 296.31,123.097 296.864,124.615C297.555,123.776 298.371,122.768 299.179,121.743C298.652,120.195 297.998,118.584 297.186,116.937ZM305.01,120.361C304.634,120.54 304.308,120.817 304.071,121.169C304.071,121.173 304.069,121.176 304.067,121.179C303.488,122.035 303.287,123.051 303.444,124.015C303.889,122.824 304.407,121.602 305.01,120.361ZM318.931,116.321C318.911,116.368 318.883,116.412 318.847,116.45C317.196,118.17 315.83,119.902 314.702,121.555C315.437,122.035 316.188,122.514 316.955,122.993C316.964,122.978 316.974,122.964 316.985,122.95C318.405,121.194 320.1,119.389 322.116,117.639C321.041,117.2 319.978,116.761 318.931,116.321ZM281.634,116.863C280.608,117.281 279.566,117.698 278.513,118.115C280.294,119.715 281.813,121.352 283.105,122.95C283.11,122.956 283.114,122.962 283.118,122.967C283.885,122.489 284.636,122.01 285.371,121.53C284.337,120.017 283.103,118.438 281.634,116.863ZM261.111,116.07C259.636,117.068 258.264,118.104 257.028,119.171C258.749,119.46 260.773,120.459 262.349,120.9C264.089,120.186 265.846,119.485 267.603,118.793C265.712,117.934 263.423,116.717 261.386,116.271C261.269,116.245 261.17,116.171 261.111,116.07ZM313.939,114.148C313.925,114.178 313.908,114.207 313.888,114.233C312.66,115.808 311.642,117.357 310.802,118.817C310.794,118.831 310.786,118.844 310.777,118.856C311.452,119.347 312.146,119.836 312.859,120.323C313.944,118.729 315.239,117.064 316.78,115.405C315.815,114.988 314.867,114.569 313.939,114.148ZM338.965,116.094C338.905,116.182 338.813,116.247 338.704,116.271C336.444,116.766 334.356,117.406 332.429,118.149C334.177,118.859 335.927,119.578 337.663,120.311C337.715,120.189 337.822,120.095 337.956,120.064C339.556,119.689 341.24,119.386 343.011,119.17C341.784,118.111 340.425,117.084 338.965,116.094ZM286.612,114.767C285.699,115.167 284.768,115.565 283.819,115.962C285.131,117.428 286.255,118.89 287.215,120.299C287.659,119.995 288.095,119.691 288.523,119.388C288.693,119.267 288.956,119.075 289.292,118.824L289.288,118.817C288.543,117.522 287.659,116.157 286.612,114.767ZM300.781,119.667C301.345,118.918 301.852,118.218 302.242,117.638C302.629,116.886 302.533,115.977 301.998,115.322C302.004,115.317 302.004,115.317 302.004,115.317C301.665,114.903 301.17,114.649 300.637,114.616C300.104,114.583 299.581,114.773 299.193,115.141C299.107,115.222 299.02,115.302 298.933,115.383C299.528,116.647 300.26,118.337 300.781,119.667ZM267.919,112.08C266.402,112.852 264.938,113.665 263.543,114.512C265.928,115.19 268.556,116.729 270.566,117.63C271.944,117.092 273.316,116.556 274.674,116.023C272.778,114.824 270.352,113.136 268.156,112.305C268.048,112.264 267.964,112.182 267.919,112.08ZM309.318,111.937C309.312,111.949 309.305,111.961 309.298,111.973C308.462,113.272 307.758,114.534 307.165,115.727C307.145,115.767 307.119,115.803 307.089,115.834C307.674,116.394 308.306,116.952 308.999,117.51C309.804,116.127 310.757,114.673 311.884,113.196C311.007,112.779 310.15,112.36 309.318,111.937ZM291.211,112.638C290.392,113.042 289.548,113.441 288.686,113.837C289.596,115.078 290.385,116.298 291.068,117.468C291.676,116.995 292.352,116.459 293.06,115.884C293.004,115.844 292.957,115.791 292.926,115.727C292.434,114.739 291.866,113.703 291.211,112.638ZM332.162,112.1C332.115,112.193 332.035,112.266 331.934,112.305C329.572,113.199 327.448,114.243 325.546,115.368C326.903,115.918 328.275,116.47 329.653,117.026C329.693,116.925 329.772,116.841 329.876,116.796C331.897,115.916 334.104,115.139 336.507,114.517C335.122,113.676 333.668,112.869 332.162,112.1ZM274.658,109.036C273.237,109.603 271.835,110.206 270.465,110.841C272.812,111.882 275.37,113.793 277.252,115.004C278.378,114.555 279.491,114.107 280.586,113.657C278.973,112.306 276.79,110.361 274.85,109.265C274.758,109.214 274.691,109.131 274.658,109.036ZM295.498,110.352C295.225,110.512 294.973,110.657 294.749,110.783C294.243,111.068 293.725,111.349 293.194,111.629C293.75,112.544 294.246,113.438 294.687,114.301C294.719,114.364 294.734,114.432 294.733,114.5C295.394,113.942 296.058,113.367 296.701,112.789C296.395,112.147 295.845,111.035 295.498,110.352ZM325.426,109.053C325.391,109.141 325.327,109.217 325.241,109.265C323.179,110.43 321.358,111.694 319.76,112.983C320.853,113.445 321.964,113.906 323.087,114.367C323.12,114.287 323.176,114.218 323.252,114.17C325.137,112.971 327.245,111.841 329.595,110.85C328.233,110.218 326.839,109.618 325.426,109.053ZM304.82,109.64C304.853,109.746 304.845,109.862 304.792,109.963C304.462,110.595 304.161,111.214 303.886,111.814C303.851,111.892 303.794,111.955 303.724,111.998C303.741,112.024 303.759,112.05 303.778,112.075C304.31,112.777 304.868,113.47 305.477,114.157C306.018,113.11 306.638,112.019 307.349,110.902C306.69,110.544 306.049,110.183 305.429,109.818C305.239,109.704 305.029,109.646 304.82,109.64ZM281.009,106.781C279.733,107.18 278.459,107.61 277.194,108.07C279.165,109.317 281.364,111.38 282.902,112.692C283.846,112.291 284.773,111.889 285.679,111.485C284.446,110.168 282.657,108.179 281.157,107.003C281.084,106.945 281.033,106.867 281.009,106.781ZM319.077,106.795C319.052,106.876 319.003,106.949 318.934,107.003C317.344,108.249 315.957,109.531 314.752,110.79C315.652,111.202 316.574,111.612 317.513,112.02C317.538,111.961 317.577,111.908 317.628,111.865C319.164,110.566 320.907,109.282 322.875,108.08C321.615,107.621 320.347,107.192 319.077,106.795ZM297.993,111.597C299.497,110.166 300.76,108.791 301.389,107.717C301.505,107.483 301.438,107.199 301.23,107.04C301.231,107.039 301.231,107.039 301.231,107.039C301.016,106.876 300.719,106.876 300.504,107.038C299.274,107.961 297.98,108.824 296.848,109.532L296.848,109.532C297.323,110.144 297.742,110.92 297.993,111.597ZM296.687,110.631L296.624,110.671L296.617,110.65L296.693,110.626L296.687,110.631ZM286.882,105.174C285.761,105.437 284.631,105.727 283.499,106.044C284.955,107.295 286.681,109.287 287.809,110.512C288.615,110.134 289.401,109.754 290.165,109.37C289.327,108.254 287.98,106.428 286.989,105.38C286.934,105.322 286.897,105.25 286.882,105.174ZM313.206,105.185C313.19,105.257 313.154,105.325 313.102,105.38C312.047,106.494 311.127,107.595 310.328,108.649C311.082,109.039 311.86,109.425 312.657,109.808C312.675,109.77 312.699,109.735 312.729,109.703C313.849,108.496 315.127,107.264 316.577,106.054C315.448,105.737 314.323,105.447 313.206,105.185ZM292.261,104.121C291.295,104.271 290.314,104.445 289.324,104.644C290.225,105.674 291.438,107.363 292.157,108.333C292.471,108.163 292.779,107.993 293.082,107.822C293.395,107.646 293.766,107.433 294.177,107.189C293.72,106.442 292.812,104.987 292.334,104.308C292.295,104.251 292.27,104.187 292.261,104.121ZM307.828,104.128C307.818,104.192 307.794,104.253 307.756,104.308C307.241,105.041 306.78,105.751 306.369,106.427L306.367,106.43C307.004,106.822 307.668,107.209 308.356,107.593C308.365,107.576 308.376,107.56 308.387,107.545C309.085,106.609 309.872,105.637 310.757,104.652C309.769,104.453 308.791,104.279 307.828,104.128ZM296.06,106.027C297.034,105.399 298.07,104.687 299.024,103.945C299.024,103.945 299.024,103.945 299.024,103.945C299.111,103.877 299.145,103.761 299.108,103.657C299.071,103.552 298.972,103.484 298.861,103.486C297.517,103.525 296.113,103.629 294.666,103.795C295.05,104.382 295.725,105.478 296.06,106.027ZM305.419,103.801C305.151,103.77 304.884,103.741 304.618,103.714C304.366,103.689 304.117,103.788 303.95,103.979C303.95,103.979 303.95,103.979 303.95,103.979C303.834,104.113 303.779,104.289 303.799,104.465C303.819,104.64 303.912,104.8 304.055,104.904C304.205,105.011 304.357,105.117 304.511,105.224C304.792,104.763 305.094,104.287 305.419,103.801Z" style="fill:#2c2822;"/>
        <g id="CorelEMF3" serif:id="CorelEMF">
        </g>
        <g id="CorelEMF4" serif:id="CorelEMF">
        </g>
    </g>
    <defs>
        <radialGradient id="_Radial1" cx="0" cy="0" r="1" gradientUnits="userSpaceOnUse" gradientTransform="matrix(2.19595e-14,-366.128,358.626,2.24189e-14,300,200.041)"><stop offset="0" style="stop-color:#fff;stop-opacity:1"/><stop offset="1" style="stop-color:#eee;stop-opacity:1"/></radialGradient>
    </defs>
</svg>
